<?xml version="1.0" encoding="UTF-8"?>
<svg version="1.1" xmlns="http://www.w3.org/2000/svg" width="445" height="152">
<path d="M0 0 C146.85 0 293.7 0 445 0 C445 50.16 445 100.32 445 152 C298.15 152 151.3 152 0 152 C0 101.84 0 51.68 0 0 Z " fill="#FDFDFD" transform="translate(0,0)"/>
<path d="M0 0 C5.76939799 3.4015409 12.04462818 8.44749125 13.875 15.10546875 C14.78436148 23.49811743 15.04036318 32.05302622 9.875 39.10546875 C4.54846603 44.9272592 -0.20967215 48.51288481 -8.203125 49.4765625 C-16.88790483 49.65838671 -23.31649647 48.30272183 -29.96875 42.49609375 C-36.33813237 35.6895969 -37.77931158 28.46471686 -37.53515625 19.29296875 C-36.69110844 12.73351152 -33.53875669 8.15169107 -28.75 3.73046875 C-20.45235325 -2.66600412 -9.76236761 -4.33205063 0 0 Z " fill="#FCFCFC" transform="translate(276.125,26.89453125)"/>
<path d="M0 0 C30.22836592 -0.92535814 30.22836592 -0.92535814 38 6 C44.31698862 13.1576055 45.36523287 19.31437616 45.28125 28.66796875 C44.76300793 34.80769771 42.55752004 39.10571887 38.6875 43.8125 C26.4376463 53.78331115 17.59878356 51 0 51 C0 34.17 0 17.34 0 0 Z " fill="#FCFBFC" transform="translate(377,25)"/>
<path d="M0 0 C29.92783505 0 29.92783505 0 37.40234375 5.89453125 C43.60967473 13.64974629 45.99883609 20.02570722 45 30 C43.77609881 36.84723099 40.59090257 42.7545504 35 47 C25 51 25 51 0 51 C0 34.17 0 17.34 0 0 Z " fill="#FCFCFD" transform="translate(23,25)"/>
<path d="M0 0 C1.65 0 3.3 0 5 0 C10.32408979 10.4716313 15.40827804 21.0292204 20.2746582 31.72119141 C21.32539304 34.02830949 22.38216282 36.33259862 23.43945312 38.63671875 C24.12275234 40.13264971 24.80570788 41.62873771 25.48828125 43.125 C25.79768143 43.79909912 26.1070816 44.47319824 26.42585754 45.16772461 C28.48855241 49.7130439 30.28825128 54.31088548 32 59 C30.35 59 28.7 59 27 59 C24.69 54.05 22.38 49.1 20 44 C8.78 44 -2.44 44 -14 44 C-16.31 48.95 -18.62 53.9 -21 59 C-22.65 59 -24.3 59 -26 59 C-19.75657786 44.06781538 -13.09428893 29.34527225 -6.32226562 14.6472168 C-5.80672119 13.52643486 -5.80672119 13.52643486 -5.28076172 12.38301086 C-4.62955738 10.96785626 -3.97695708 9.55334294 -3.32275391 8.13957214 C-2.08396816 5.44776827 -0.93799639 2.81398917 0 0 Z " fill="#926AC5" transform="translate(123,21)"/>
<path d="M0 0 C5 1 5 1 6.80175781 3.33813477 C7.61918457 4.87425415 7.61918457 4.87425415 8.453125 6.44140625 C9.06857178 7.57602295 9.68401855 8.71063965 10.31811523 9.87963867 C10.96234864 11.10711649 11.60630545 12.33473951 12.25 13.5625 C12.91369951 14.79822151 13.57915077 16.03300373 14.24633789 17.2668457 C15.56563732 19.71016962 16.87703703 22.15745815 18.18212891 24.60839844 C20.53822962 29.00417485 22.97465869 33.35091347 25.4375 37.6875 C26.14480104 38.94125409 26.85186644 40.19514117 27.55859375 41.44921875 C28.03425781 42.29097656 28.50992188 43.13273437 29 44 C31.72406327 40.74136904 33.9369597 37.54302161 35.91796875 33.7890625 C36.44592041 32.79777344 36.97387207 31.80648437 37.51782227 30.78515625 C38.06881592 29.74230469 38.61980957 28.69945312 39.1875 27.625 C47.38676084 12.35080326 47.38676084 12.35080326 51.0625 6 C51.40756592 5.37818848 51.75263184 4.75637695 52.1081543 4.11572266 C53.09765625 2.4375 53.09765625 2.4375 55 0 C56.32 0 57.64 0 59 0 C59 19.47 59 38.94 59 59 C57.68 59 56.36 59 55 59 C54.67 43.16 54.34 27.32 54 11 C49.04905502 19.67395829 49.04905502 19.67395829 44.09936523 28.34863281 C42.75862437 30.69625349 41.41388376 33.04131111 40.06591797 35.38476562 C38.69171821 37.77698957 37.34459337 40.18172095 36.01611328 42.59960938 C35.40364746 43.69595703 34.79118164 44.79230469 34.16015625 45.921875 C33.62140869 46.9025293 33.08266113 47.88318359 32.52758789 48.89355469 C32.02348389 49.58868164 31.51937988 50.28380859 31 51 C30.01 51 29.02 51 28 51 C26.00985253 47.55377979 24.02013295 44.10731289 22.03076172 40.66064453 C21.03243753 38.9311933 20.03380211 37.20192175 19.03515625 35.47265625 C18.38417969 34.34472656 17.73320312 33.21679688 17.0625 32.0546875 C16.47597656 31.03874512 15.88945312 30.02280273 15.28515625 28.97607422 C11.84519452 22.99068782 8.42509066 16.99390866 5 11 C4.67 26.84 4.34 42.68 4 59 C2.68 59 1.36 59 0 59 C0 39.53 0 20.06 0 0 Z " fill="#916AC5" transform="translate(163,21)"/>
<path d="M0 0 C4.723125 -0.0825 9.44625 -0.165 14.3125 -0.25 C15.77856689 -0.28641602 17.24463379 -0.32283203 18.75512695 -0.36035156 C29.12688134 -0.44737352 38.67394831 0.85910767 46.5 8.21484375 C49.24699888 11.48405856 51.14741273 15.17234035 53 19 C53.495 19.99 53.495 19.99 54 21 C54.92746612 31.60128999 54.87490079 40.28061363 48 49 C42.63569366 55.21267595 35.43006722 58.61850906 27.28320312 59.32006836 C23.14426155 59.43726841 19.01422244 59.34868808 14.875 59.25 C9.96625 59.1675 5.0575 59.085 0 59 C0 39.53 0 20.06 0 0 Z M5 4 C5 20.83 5 37.66 5 55 C25.28518854 56.55277242 25.28518854 56.55277242 42.40234375 49.17578125 C48.30632633 42.00987873 50.71091527 35.11004353 50.41015625 25.7734375 C49.3406884 18.54179777 45.65410189 12.90963258 40.13671875 8.25390625 C28.12920487 1.20744929 20.6299795 4 5 4 Z " fill="#946EC6" transform="translate(18,21)"/>
<path d="M0 0 C1.32 0 2.64 0 4 0 C5.98016483 2.24990865 7.66630573 4.43015227 9.375 6.875 C10.44094061 8.34893627 11.50872187 9.82154276 12.578125 11.29296875 C13.13564453 12.06560059 13.69316406 12.83823242 14.26757812 13.63427734 C17.13579937 17.55099998 20.13106521 21.36655208 23.125 25.1875 C24.29702118 26.69129233 25.46889844 28.19519684 26.640625 29.69921875 C28.79174869 32.45588499 30.94885787 35.20772454 33.109375 37.95703125 C34.03139606 39.1379068 34.95328029 40.31888922 35.875 41.5 C36.67679687 42.5209375 37.47859375 43.541875 38.3046875 44.59375 C40 47 40 47 40 49 C40.66 49 41.32 49 42 49 C42 32.83 42 16.66 42 0 C43.65 0 45.3 0 47 0 C47 19.47 47 38.94 47 59 C41.19795202 57.8395904 39.7759142 55.88723717 36.4375 51.4375 C35.91865234 50.76783203 35.39980469 50.09816406 34.86523438 49.40820312 C33.22715203 47.2840312 31.61061886 45.1450537 30 43 C29.49484863 42.32855957 28.98969727 41.65711914 28.46923828 40.96533203 C26.48216962 38.3195809 24.49856637 35.67138839 22.52587891 33.01489258 C18.39566679 27.46827746 14.1055573 22.06153874 9.74414062 16.6953125 C6.09749061 12.19498123 6.09749061 12.19498123 5 10 C4.67 26.17 4.34 42.34 4 59 C2.68 59 1.36 59 0 59 C0 39.53 0 20.06 0 0 Z " fill="#946EC6" transform="translate(308,21)"/>
<path d="M0 0 C36.74676724 0 36.74676724 0 46.34375 9.125 C48.79070372 11.89513628 50.37361409 14.68217274 52 18 C52.495 18.99 52.495 18.99 53 20 C53.90288413 28.55911297 54.78356823 38.93398095 49.6015625 46.21484375 C49.07304687 46.80394531 48.54453125 47.39304688 48 48 C47.43023437 48.64066406 46.86046875 49.28132813 46.2734375 49.94140625 C33.37548935 62.65358148 17.14904704 59 0 59 C0 39.53 0 20.06 0 0 Z M4 4 C4 20.83 4 37.66 4 55 C25.43812816 56.30074327 25.43812816 56.30074327 43 48 C49.08314205 40.22709626 49.7614418 32.58245225 49 23 C47.66814593 16.91430184 44.61518291 12.24089093 39.8984375 8.19921875 C28.88903931 1.60380528 16.40410189 3.6202826 4 4 Z " fill="#9068C4" transform="translate(373,21)"/>
<path d="M0 0 C6.61397857 4.6613713 12.2050521 10.75626212 13.69921875 18.90234375 C14.90936822 28.56978777 12.94898112 37.1775425 7.08984375 45.0703125 C0.51977047 52.13766197 -7.32192861 54.98758909 -16.80078125 55.33984375 C-25.42385196 55.25908658 -31.97079827 52.64677743 -38.49609375 47.00390625 C-45.83833217 39.23157855 -46.83892016 31.9866301 -46.578125 21.4609375 C-45.92522325 13.08356431 -42.55055684 7.51634563 -36.30078125 1.90234375 C-25.05051005 -5.76225922 -12.05910402 -6.84261577 0 0 Z M-36.73828125 8.33984375 C-37.61794804 9.50857951 -38.47496223 10.69495819 -39.30078125 11.90234375 C-39.91953125 12.76859375 -40.53828125 13.63484375 -41.17578125 14.52734375 C-43.81808848 22.45426543 -43.1788016 31.10956101 -39.6953125 38.6796875 C-35.92474453 44.68936025 -30.10347267 49.00651171 -23.30078125 50.90234375 C-15.37487727 51.72474624 -7.97724444 51.62625639 -1.30078125 46.90234375 C4.72681141 41.4065975 8.21508951 36.58056105 9.0703125 28.31640625 C9.2379667 18.75025474 8.36485575 13.80223867 1.83203125 6.94140625 C-4.77911288 0.63895368 -11.24220827 -0.65272467 -20.234375 -0.47265625 C-26.90758559 0.34343065 -32.25156513 3.37910111 -36.73828125 8.33984375 Z " fill="#936CC6" transform="translate(281.30078125,25.09765625)"/>
<path d="M0 0 C0.66 0 1.32 0 2 0 C3.83734895 4.05489162 5.67030849 8.11172981 7.49926758 12.17041016 C8.12176875 13.55018248 8.74545561 14.92942051 9.37036133 16.30810547 C10.26958205 18.29254325 11.16448863 20.27887806 12.05859375 22.265625 C12.59798584 23.45961914 13.13737793 24.65361328 13.69311523 25.88378906 C15 29 15 29 16 33 C6.1 33 -3.8 33 -14 33 C-12.55013786 28.65041359 -11.04188687 24.66804514 -9.1796875 20.5078125 C-8.64472656 19.30898438 -8.10976562 18.11015625 -7.55859375 16.875 C-6.99745717 15.62497246 -6.43625849 14.3749728 -5.875 13.125 C-5.30573112 11.85167802 -4.73671824 10.57824156 -4.16796875 9.3046875 C-2.78115731 6.20199072 -1.39175486 3.10048172 0 0 Z " fill="#F7F6F9" transform="translate(125,27)"/>
<path d="M0 0 C5.04310345 3.78232759 5.04310345 3.78232759 5.71875 6.73828125 C5.7769334 10.94930501 5.63524 13.8214377 2.9375 17.1875 C-0.73304005 20.60195586 -3.70278995 21.08360487 -8.6796875 21.046875 C-12.3733571 20.40570971 -14.17218955 18.32818388 -16.75 15.6875 C-18.36540873 12.45668255 -18.3396275 9.17990902 -17.75 5.6875 C-13.93541752 -1.19053096 -7.20626896 -3.43935564 0 0 Z " fill="#F6F6F6" transform="translate(238.75,104.3125)"/>
<path d="M0 0 C12.24185013 -0.40357748 12.24185013 -0.40357748 17 3 C18 4 18 4 18.3125 7.3125 C18 11 18 11 16 13.4375 C15.01 14.2109375 15.01 14.2109375 14 15 C15.32 17.31 16.64 19.62 18 22 C15.44886199 20.94435669 14.20622958 20.3402788 12.75 17.9375 C9.97679797 14.86716918 7.03726989 15.26473901 3 15 C3 17.31 3 19.62 3 22 C2.01 22 1.02 22 0 22 C0 14.74 0 7.48 0 0 Z " fill="#222222" transform="translate(302,103)"/>
<path d="M0 0 C12.24185013 -0.40357748 12.24185013 -0.40357748 17 3 C18 4 18 4 18.375 7.3125 C18 11 18 11 16.125 13.4375 C11.72890579 15.6355471 7.82520752 15.33729606 3 15 C3 17.31 3 19.62 3 22 C2.01 22 1.02 22 0 22 C0 14.74 0 7.48 0 0 Z " fill="#0E0E0E" transform="translate(252,103)"/>
<path d="M0 0 C1.32 0 2.64 0 4 0 C4 19.47 4 38.94 4 59 C2.68 59 1.36 59 0 59 C0 39.53 0 20.06 0 0 Z " fill="#9068C4" transform="translate(85,21)"/>
<path d="M0 0 C15.28440367 -0.46788991 15.28440367 -0.46788991 20.875 4.75 C22.52659363 8.05318727 22.44042955 10.35072662 22 14 C20.3073046 17.32269838 19.1188093 19.4149888 15.78125 21.16015625 C10.62139715 22.71825788 5.34884866 22.10805755 0 22 C0 14.74 0 7.48 0 0 Z M3 2 C3 7.94 3 13.88 3 20 C11.06598276 20.57764397 11.06598276 20.57764397 18 17 C19.59616743 13.80766515 19.51466114 10.46538503 19 7 C17.12984906 4.56880377 15.71861655 3.35930827 13 2 C11.29297265 1.93003986 9.58331997 1.91559846 7.875 1.9375 C6.26625 1.958125 4.6575 1.97875 3 2 Z " fill="#3B3B3B" transform="translate(98,103)"/>
<path d="M0 0 C5.04310345 3.78232759 5.04310345 3.78232759 5.71875 6.73828125 C5.7769334 10.94930501 5.63524 13.8214377 2.9375 17.1875 C-0.73304005 20.60195586 -3.70278995 21.08360487 -8.6796875 21.046875 C-12.3733571 20.40570971 -14.17218955 18.32818388 -16.75 15.6875 C-18.36540873 12.45668255 -18.3396275 9.17990902 -17.75 5.6875 C-13.93541752 -1.19053096 -7.20626896 -3.43935564 0 0 Z M-14.75 4.6875 C-16.17662219 7.54074437 -16.06033868 9.52204549 -15.75 12.6875 C-13.95006226 15.38740662 -12.666227 17.2293865 -9.75 18.6875 C-5.56855989 19.08197548 -3.44053952 19.13785186 0.125 16.8125 C2.82406969 14.11343031 3.18277491 13.19648995 3.6875 9.375 C3.58029689 5.50871803 3.58029689 5.50871803 0.6875 2.75 C-4.98331122 -1.28911554 -10.00476309 -0.05773691 -14.75 4.6875 Z " fill="#131313" transform="translate(238.75,104.3125)"/>
<path d="M0 0 C8.21766784 -0.36254417 8.21766784 -0.36254417 11.5625 1.1875 C13 3 13 3 13.5 5.5 C13 8 13 8 11.5625 9.8125 C7.66280981 11.6196735 4.2730991 11.18851908 0 11 C0 7.37 0 3.74 0 0 Z " fill="#F6F6F6" transform="translate(305,105)"/>
<path d="M0 0 C8.21766784 -0.36254417 8.21766784 -0.36254417 11.5625 1.1875 C13 3 13 3 13.5 5.5 C13 8 13 8 11.5625 9.8125 C7.66280981 11.6196735 4.2730991 11.18851908 0 11 C0 7.37 0 3.74 0 0 Z " fill="#F6F6F6" transform="translate(255,105)"/>
<path d="M0 0 C5.28 0 10.56 0 16 0 C16 0.66 16 1.32 16 2 C11.38 2 6.76 2 2 2 C2 4.64 2 7.28 2 10 C5.96 10 9.92 10 14 10 C14 10.66 14 11.32 14 12 C10.04 12 6.08 12 2 12 C2 14.64 2 17.28 2 20 C6.62 20 11.24 20 16 20 C16 20.66 16 21.32 16 22 C10.72 22 5.44 22 0 22 C0 14.74 0 7.48 0 0 Z " fill="#000000" transform="translate(278,103)"/>
<path d="M0 0 C4.95 0 9.9 0 15 0 C15 0.66 15 1.32 15 2 C10.71 2 6.42 2 2 2 C2 4.64 2 7.28 2 10 C5.96 10 9.92 10 14 10 C14 10.66 14 11.32 14 12 C10.04 12 6.08 12 2 12 C2 14.64 2 17.28 2 20 C6.62 20 11.24 20 16 20 C16 20.66 16 21.32 16 22 C10.72 22 5.44 22 0 22 C0 14.74 0 7.48 0 0 Z " fill="#060606" transform="translate(128,103)"/>
<path d="M0 0 C4.95 0 9.9 0 15 0 C15 0.66 15 1.32 15 2 C10.71 2 6.42 2 2 2 C2 4.64 2 7.28 2 10 C5.96 10 9.92 10 14 10 C14 10.66 14 11.32 14 12 C10.04 12 6.08 12 2 12 C2 14.64 2 17.28 2 20 C6.62 20 11.24 20 16 20 C16 20.66 16 21.32 16 22 C10.72 22 5.44 22 0 22 C0 14.74 0 7.48 0 0 Z " fill="#050505" transform="translate(177,103)"/>
<path d="M0 0 C2.4375 1 2.4375 1 4 2 C0.61082427 3.0428233 -2.47403153 3 -6 3 C-6.99 3.495 -6.99 3.495 -8 4 C-8.65213292 6.02463255 -8.65213292 6.02463255 -9 8 C-7.86111328 8.29003906 -7.86111328 8.29003906 -6.69921875 8.5859375 C-5.70535156 8.84632812 -4.71148437 9.10671875 -3.6875 9.375 C-2.70136719 9.63023438 -1.71523438 9.88546875 -0.69921875 10.1484375 C2 11 2 11 5 13 C5.4375 15.9375 5.4375 15.9375 5 19 C3.5625 20.875 3.5625 20.875 1 22 C-3.74137511 22.53918165 -6.95796039 22.69469307 -11 20 C-11 19.34 -11 18.68 -11 18 C-10.484375 18.165 -9.96875 18.33 -9.4375 18.5 C-5.61349155 19.28441199 -1.55708573 19.77854287 2 18 C1.83983208 16.02723636 1.83983208 16.02723636 1 14 C-0.98436045 12.9691244 -0.98436045 12.9691244 -3.375 12.4375 C-6.76373127 11.54892389 -8.7931919 10.79157744 -11 8 C-11.4375 5.5 -11.4375 5.5 -11 3 C-7.85694557 -0.64594314 -4.57672641 -0.40863629 0 0 Z " fill="#1D1D1D" transform="translate(338,103)"/>
<path d="M0 0 C3 1 3 1 4.07495117 2.58227539 C4.39439697 3.24735107 4.71384277 3.91242676 5.04296875 4.59765625 C5.51899536 5.56844116 5.51899536 5.56844116 6.00463867 6.55883789 C6.39498291 7.38504639 6.78532715 8.21125488 7.1875 9.0625 C8.445625 11.681875 9.70375 14.30125 11 17 C13.64 11.39 16.28 5.78 19 0 C19.66 0 20.32 0 21 0 C20.36111113 5.06040549 18.13720723 9.28011534 15.9375 13.8125 C15.56044922 14.60076172 15.18339844 15.38902344 14.79492188 16.20117188 C13.86829839 18.13652473 12.93482533 20.06859549 12 22 C11.01 22 10.02 22 9 22 C7.49394598 18.71106997 5.99619468 15.41842554 4.5 12.125 C4.07074219 11.18785156 3.64148438 10.25070313 3.19921875 9.28515625 C2.79316406 8.38925781 2.38710937 7.49335937 1.96875 6.5703125 C1.59169922 5.74289551 1.21464844 4.91547852 0.82617188 4.06298828 C0 2 0 2 0 0 Z " fill="#202020" transform="translate(149,103)"/>
<path d="M0 0 C0.66 0 1.32 0 2 0 C2 6.6 2 13.2 2 20 C6.29 20 10.58 20 15 20 C15 20.66 15 21.32 15 22 C10.05 22 5.1 22 0 22 C0 14.74 0 7.48 0 0 Z " fill="#131313" transform="translate(201,103)"/>
<path d="M0 0 C1.485 0.99 1.485 0.99 3 2 C3.29296875 4.6015625 3.29296875 4.6015625 3.1875 7.625 C3.16042969 8.62789062 3.13335937 9.63078125 3.10546875 10.6640625 C3.07066406 11.43492188 3.03585938 12.20578125 3 13 C5.97 13 8.94 13 12 13 C12 13.66 12 14.32 12 15 C9.03 15 6.06 15 3 15 C3 17.31 3 19.62 3 22 C2.01 22 1.02 22 0 22 C0 14.74 0 7.48 0 0 Z " fill="#393939" transform="translate(252,103)"/>
<path d="M0 0 C13.32574032 -0.44419134 13.32574032 -0.44419134 18 3 C19.375 5.1875 19.375 5.1875 20 7 C17 7 17 7 15.4375 5.5625 C14.963125 5.046875 14.48875 4.53125 14 4 C11.43106162 2.71553081 9.23423663 2.67022856 6.375 2.4375 C4.60125 2.293125 2.8275 2.14875 1 2 C1 7.94 1 13.88 1 20 C0.67 20 0.34 20 0 20 C0 13.4 0 6.8 0 0 Z " fill="#010101" transform="translate(99,103)"/>
<path d="M0 0 C-0.49371094 0.33773437 -0.98742187 0.67546875 -1.49609375 1.0234375 C-2.13675781 1.46945313 -2.77742187 1.91546875 -3.4375 2.375 C-4.07558594 2.81585938 -4.71367187 3.25671875 -5.37109375 3.7109375 C-7.68443986 5.54164305 -7.96369448 6.7769804 -8.4375 9.6875 C-7.8173965 14.38256937 -5.25750703 16.72310305 -2 20 C-2.66 20.33 -3.32 20.66 -4 21 C-9.875 16.25 -9.875 16.25 -11 14 C-11.47210258 9.27897422 -11.73364092 6.34044655 -8.6875 2.5625 C-5.43480133 -0.53891036 -4.32734479 -1.44244826 0 0 Z " fill="#151515" transform="translate(232,104)"/>
<path d="M0 0 C5.28 0 10.56 0 16 0 C16 0.66 16 1.32 16 2 C11.38 2 6.76 2 2 2 C1.67 8.6 1.34 15.2 1 22 C0.67 22 0.34 22 0 22 C0 14.74 0 7.48 0 0 Z " fill="#191919" transform="translate(278,103)"/>
<path d="M0 0 C3.63 0.66 7.26 1.32 11 2 C11 2.66 11 3.32 11 4 C9.741875 4.04125 8.48375 4.0825 7.1875 4.125 C6.47980469 4.14820312 5.77210938 4.17140625 5.04296875 4.1953125 C3 4 3 4 0 2 C0 1.34 0 0.68 0 0 Z " fill="#161616" transform="translate(327,121)"/>
<path d="M0 0 C5.875 4.625 5.875 4.625 7 8 C3.62496331 6.8141763 1.35277269 5.72426311 -1 3 C-0.67 2.01 -0.34 1.02 0 0 Z " fill="#222222" transform="translate(223,117)"/>
<path d="M0 0 C2.8125 0.1875 2.8125 0.1875 6 1 C7.875 3.5625 7.875 3.5625 9 6 C6 6 6 6 4.5 4.6875 C4.005 4.130625 3.51 3.57375 3 3 C2.443125 2.443125 1.88625 1.88625 1.3125 1.3125 C0.879375 0.879375 0.44625 0.44625 0 0 Z " fill="#1C1C1C" transform="translate(110,104)"/>
<path d="M0 0 C0.99 0.33 1.98 0.66 3 1 C1.35 2.65 -0.3 4.3 -2 6 C-2.99 5.34 -3.98 4.68 -5 4 C-4.360625 3.71125 -3.72125 3.4225 -3.0625 3.125 C-0.84793921 2.17176549 -0.84793921 2.17176549 0 0 Z " fill="#202020" transform="translate(116,118)"/>
</svg>
